<svg viewBox="0 0 490 152" xmlns="http://www.w3.org/2000/svg" xml:space="preserve" style="fill-rule:evenodd;clip-rule:evenodd;stroke-linejoin:round;stroke-miterlimit:2">
    <g transform="matrix(2.18196 0 0 1.52 2.527 0)">
        <path style="fill:none" d="M-1.158 0H223.41v100H-1.158z" />
        <clipPath id="a">
            <path d="M-1.158 0H223.41v100H-1.158z" />
        </clipPath>
        <g clip-path="url(#a)">
            <path d="M155.791 44.952c-5.584-1.683-14.166-3.142-14.166-9.313 0-4.488 3.412-7.517 8.582-7.517 6.308 0 9.306 3.814 10.237 7.629l16.337-4.376c-2.792-12.454-13.338-19.635-25.746-19.635-15.097 0-26.574 8.976-26.574 24.011 0 13.128 6.514 20.421 20.99 24.235 8.169 2.244 15.303 3.142 15.303 8.976 0 5.162-4.549 7.742-10.65 7.742-7.858 0-11.684-4.824-12.615-9.312l-16.337 5.497c3.205 14.586 15.82 20.196 29.159 20.196 18.095 0 28.331-11.668 28.331-24.459 0-12.23-5.17-18.289-22.851-23.674ZM232.307 13.087H180.71v18.176h16.958v60.364h17.681V31.263h16.958V13.087ZM256.192 73.563V60.547h23.576V43.381h-23.576V31.263h26.884V13.087h-44.565v78.54h45.496V73.563h-27.815ZM340.463 13.087l-17.888 61.934-17.991-61.934h-18.509l25.953 78.54h20.991l25.953-78.54h-18.509ZM380.789 73.563V60.547h23.576V43.381h-23.576V31.263h26.884V13.087h-44.565v78.54h45.496V73.563h-27.815ZM415.842 13.087h11.994v27.04h-11.994zM467.645 44.952c-5.583-1.683-14.165-3.142-14.165-9.313 0-4.488 3.412-7.517 8.582-7.517 6.307 0 9.306 3.814 10.236 7.629l16.338-4.376c-2.792-12.454-13.339-19.635-25.747-19.635-15.096 0-26.574 8.976-26.574 24.011 0 13.128 6.514 20.421 20.99 24.235 8.169 2.244 15.304 3.142 15.304 8.976 0 5.162-4.55 7.742-10.651 7.742-7.858 0-11.684-4.824-12.614-9.312l-16.338 5.497c3.206 14.586 15.821 20.196 29.159 20.196 18.095 0 28.332-11.668 28.332-24.459 0-12.23-5.17-18.289-22.852-23.674Z" style="fill:#fff;fill-rule:nonzero" transform="matrix(.45663 0 0 .6551 -1.945 -.007)" />
            <g>
                <path d="M164.024 42.627h-7.91l-13.86 24.36-13.93-24.36h-7.84l18.27 30.66v18.34h7v-18.34l18.27-30.66ZM195.594 91.627h7.56l-18.2-49h-7.98l-18.2 49h7.56l4.13-11.76h21l4.13 11.76Zm-22.89-18.2 8.26-23.31 8.19 23.31h-16.45ZM244.664 91.627l-11.62-20.58c5.67-2.45 8.82-7.42 8.82-13.37 0-8.47-6.44-15.05-17.64-15.05h-15.12v49h7v-18.9h8.12c.7 0 1.33 0 1.89-.07l10.15 18.97h8.4Zm-28.56-25.27v-17.36h8.12c6.79 0 10.43 3.43 10.43 8.68s-3.64 8.68-10.43 8.68h-8.12ZM264.474 42.627h-13.86v49h13.86c16.59 0 25.55-10.64 25.55-24.5 0-13.79-8.96-24.5-25.55-24.5Zm0 42.63h-6.86v-36.26h6.86c11.62 0 18.48 7.14 18.48 18.13 0 10.99-6.86 18.13-18.48 18.13ZM339.444 85.957c-11.41 0-17.78-9.31-17.78-18.83 0-9.52 6.37-18.83 17.78-18.83 5.95 0 10.57 2.59 13.65 6.37l5.81-3.78c-4.48-5.67-11.34-9.1-19.46-9.1-14.49 0-24.92 10.99-24.92 25.34s10.43 25.41 24.92 25.41c8.12 0 14.98-3.5 19.46-9.1l-5.81-3.85c-3.08 3.78-7.7 6.37-13.65 6.37ZM399.224 91.627h7.56l-18.2-49h-7.98l-18.2 49h7.56l4.13-11.76h21l4.13 11.76Zm-22.89-18.2 8.26-23.31 8.19 23.31h-16.45ZM448.294 91.627l-11.62-20.58c5.67-2.45 8.82-7.42 8.82-13.37 0-8.47-6.44-15.05-17.64-15.05h-15.12v49h7v-18.9h8.12c.7 0 1.33 0 1.89-.07l10.15 18.97h8.4Zm-28.56-25.27v-17.36h8.12c6.79 0 10.43 3.43 10.43 8.68s-3.64 8.68-10.43 8.68h-8.12ZM461.314 85.257v-15.82h18.41v-6.37h-18.41v-14.07h19.95v-6.37h-27.02v49h27.72v-6.37h-20.65Z" style="fill:#fff;fill-rule:nonzero" transform="matrix(.45896 0 0 .66114 -2.026 39.004)" />
            </g>
            <g>
                <path style="fill:#fff" d="M99.284 81.848h92v57.133h-92z" transform="matrix(.52671 0 0 .82009 -53.39 -32.444)" />
                <path d="M8.384 68.721c0-25.246 20.496-45.743 45.742-45.743s45.743 20.497 45.743 45.743H8.384Z" style="fill:#fef334" transform="matrix(.53102 0 0 .76228 -5.61 -17.516)" />
                <path style="fill:#048446" d="M4.908 137.329h87.569v31.158H4.908z" transform="matrix(.55477 0 0 .66133 -3.881 -11.426)" />
                <path style="fill:#048446" d="M5.261 131.348h87.371v1.875H5.261z" transform="matrix(.55602 0 0 1.05275 -4.145 -63.935)" />
                <path style="fill:#048446" d="M5.261 131.348h87.371v1.875H5.261z" transform="matrix(.55602 0 0 1.05275 -4.083 -69.198)" />
                <path style="fill:#048446" d="M5.261 131.348h87.371v1.875H5.261z" transform="matrix(.55602 0 0 1.05275 -4.145 -74.461)" />
                <path style="fill:#048446" d="M5.261 131.348h87.371v1.875H5.261z" transform="matrix(.55602 0 0 1.05275 -4.083 -79.724)" />
                <path style="fill:#048446" d="M5.261 131.348h87.371v1.875H5.261z" transform="matrix(.55602 0 0 1.05275 -4.083 -88.277)" />
                <path style="fill:#048446" d="M5.261 131.348h87.371v1.875H5.261z" transform="matrix(.55602 0 0 1.05275 -4.083 -96.83)" />
            </g>
        </g>
    </g>
</svg>